<svg xmlns="http://www.w3.org/2000/svg" xmlns:xlink="http://www.w3.org/1999/xlink" width="60" height="60" viewBox="0 0 60 60">
    <defs>
        <style>
            .cls-1{fill:url(#linear-gradient)}.cls-2{fill:url(#linear-gradient-2)}.cls-3{fill:url(#linear-gradient-3)}.cls-4{fill:none}
        </style>
        <linearGradient id="linear-gradient" x1=".221" x2=".666" y1=".079" y2=".77" gradientUnits="objectBoundingBox">
            <stop offset="0" stop-color="#482d2f"/>
            <stop offset="1" stop-color="#1b0e0d"/>
        </linearGradient>
        <linearGradient id="linear-gradient-2" x1=".5" x2=".5" y1=".013" y2="1.037" gradientUnits="objectBoundingBox">
            <stop offset="0" stop-color="#fff154"/>
            <stop offset="1" stop-color="#fe0"/>
        </linearGradient>
        <linearGradient id="linear-gradient-3" y1=".02" y2="1.03" xlink:href="#linear-gradient-2"/>
    </defs>
    <g id="k-logo" transform="translate(-.893)">
        <g id="그룹_2943" data-name="그룹 2943" transform="translate(13.101 14.677)">
            <path id="패스_3727" d="M134.76 49.925c-9.989 0-18.084 6.45-18.084 14.412A13.968 13.968 0 0 0 124.9 76.41l-1.366 7.082 7.822-5.01a22.54 22.54 0 0 0 3.406.258c9.989 0 18.086-6.45 18.086-14.412s-8.1-14.4-18.087-14.4z" class="cls-1" data-name="패스 3727" transform="translate(-116.676 -49.925)"/>
            <g id="그룹_2942" data-name="그룹 2942" transform="translate(4.608 10.915)">
                <g id="그룹_2940" data-name="그룹 2940" transform="translate(0 .058)">
                    <path id="패스_3728" d="M124.131 65.871a.788.788 0 0 0-.537.206.718.718 0 0 0-.163.221.668.668 0 0 0-.06.271.659.659 0 0 0 .06.269.728.728 0 0 0 .275.309.816.816 0 0 0 .427.12h1.853v6.3a.765.765 0 0 0 .762.762h.17a.765.765 0 0 0 .762-.762v-6.3h1.832a.8.8 0 0 0 .539-.206.718.718 0 0 0 .163-.223.649.649 0 0 0 .06-.27.66.66 0 0 0-.06-.269.717.717 0 0 0-.277-.309.808.808 0 0 0-.425-.12z" class="cls-2" data-name="패스 3728" transform="translate(-123.371 -65.871)"/>
                </g>
                <g id="그룹_2941" data-name="그룹 2941" transform="translate(5.471)">
                    <path id="패스_3729" d="M133.535 72.535h3.515l.623 1.37a.749.749 0 0 0 .286.328.769.769 0 0 0 .721.049l.159-.071a.749.749 0 0 0 .328-.286l.221-.35-3.244-7.131a.778.778 0 0 0-.2-.371.831.831 0 0 0-.187-.172.769.769 0 0 0-.374-.116 1.122 1.122 0 0 0-.125 0 .771.771 0 0 0-.408.118.749.749 0 0 0-.234.232l-.06.082a.762.762 0 0 0-.094.217l-.022.064-3.058 6.7a.749.749 0 0 0-.067.313.769.769 0 0 0 .118.408.748.748 0 0 0 .328.286l.157.071a.769.769 0 0 0 .722-.051.748.748 0 0 0 .286-.326zm15.4-1.815l2.381 3.266a.763.763 0 0 0 .277.232.784.784 0 0 0 .788-.067l.139-.1a.749.749 0 0 0 .232-.275.773.773 0 0 0 .079-.341.758.758 0 0 0-.144-.447l-2.57-3.507 2.141-2.233a.749.749 0 0 0 .212-.526.785.785 0 0 0-.058-.3.748.748 0 0 0-.176-.255l-.125-.12a.782.782 0 0 0-.822-.152.749.749 0 0 0-.255.174l-3.114 3.247V66.6a.764.764 0 0 0-.76-.762h-.174a.762.762 0 0 0-.762.762v7.127l.1.172a.785.785 0 0 0 .127.168.762.762 0 0 0 .537.225h.172a.765.765 0 0 0 .762-.762v-1.763zm-9.171 3.068l.079.125a.717.717 0 0 0 .256.266.831.831 0 0 0 .346.114h4.518a.8.8 0 0 0 .539-.2.676.676 0 0 0 .144-.187l.211-.393-.305-.341a.784.784 0 0 0-.591-.256h-3.5V66.6a.764.764 0 0 0-.76-.762h-.174a.764.764 0 0 0-.762.762zm-3.348-2.62h-2.259l1.123-2.476z" class="cls-3" data-name="패스 3729" transform="translate(-131.313 -65.782)"/>
                </g>
            </g>
        </g>
        <path id="사각형_1669" d="M0 0h60v60H0z" class="cls-4" data-name="사각형 1669" transform="translate(.892)"/>
    </g>
</svg>
